<?xml version="1.0" encoding="utf-8"?>
<!-- Generator: Adobe Illustrator 24.0.0, SVG Export Plug-In . SVG Version: 6.00 Build 0)  -->
<svg version="1.1" xmlns="http://www.w3.org/2000/svg" xmlns:xlink="http://www.w3.org/1999/xlink" x="0px" y="0px"
	 viewBox="0 0 1920 1080" style="enable-background:new 0 0 1920 1080;" xml:space="preserve">
<style type="text/css">
	.st0{fill:#F8F9FA;}
	.st1{fill:none;stroke:#56A099;stroke-width:2;stroke-miterlimit:10;}
	.st2{fill:none;stroke:#3F3E3E;stroke-width:2;stroke-miterlimit:10;stroke-dasharray:6.9808,6.9808;}
	.st3{fill:none;stroke:#3F3E3E;stroke-width:2;stroke-miterlimit:10;stroke-dasharray:7.1229,7.1229;}
	.st4{fill:#585857;}
	.st5{fill:#56A099;}
	.st6{fill:none;stroke:#56A099;stroke-width:3;stroke-miterlimit:10;}
	.st7{fill:none;stroke:#3F3E3E;stroke-width:3;stroke-miterlimit:10;}
	.st8{fill:#E67E22;}
	.st9{fill:none;stroke:#E67E22;stroke-width:4;stroke-miterlimit:10;}
</style>
<g id="Layer_1">
</g>
<g id="Layer_7">
	<rect x="-16" y="-17" class="st0" width="1946" height="1105"/>
</g>
<g id="Layer_2">
	<g>
		<ellipse class="st1" cx="1815.3" cy="976.4" rx="150.2" ry="145.6"/>
		<g>
			<ellipse class="st2" cx="1815.3" cy="976.4" rx="115.1" ry="111.5"/>
		</g>
		<ellipse class="st1" cx="1815.3" cy="976.4" rx="81.5" ry="79"/>
		<g>
			<ellipse class="st3" cx="1815.3" cy="976.4" rx="50.7" ry="49.1"/>
		</g>
		<ellipse class="st1" cx="1815.3" cy="976.4" rx="25.1" ry="24.3"/>
	</g>
</g>
<g id="Layer_3">
	<g>
		<polygon class="st4" points="1796.6,477.6 1825,477.5 1810.8,504 1796.7,530.4 1782.4,504 1768.2,477.6 		"/>
		<polygon class="st5" points="1796.7,540.9 1825.1,540.9 1811,567.3 1796.8,593.7 1782.6,567.4 1768.3,541 		"/>
		<polygon class="st4" points="1796.8,604.3 1825.2,604.2 1811.1,630.7 1796.9,657.1 1782.7,630.7 1768.4,604.3 		"/>
		<polygon class="st5" points="1796.9,667.7 1825.3,667.6 1811.2,694 1797,720.5 1782.8,694.1 1768.5,667.7 		"/>
		<polygon class="st4" points="1797,731 1825.4,731 1811.3,757.4 1797.1,783.8 1782.9,757.5 1768.6,731.1 		"/>
	</g>
</g>
<g id="Layer_4">
	<g>
		<path class="st6" d="M1358.8,460.9c7.8,11.4-11.6,24.7-3.8,36.1c7.8,11.4,27.2-1.8,35.1,9.6c7.8,11.4-11.6,24.7-3.8,36.2
			c7.8,11.4,27.2-1.8,35.1,9.6c7.8,11.4-11.6,24.7-3.8,36.1c7.8,11.4,27.2-1.8,35.1,9.6c7.8,11.4-11.6,24.7-3.8,36.2
			c7.8,11.4,27.2-1.8,35.1,9.6c7.8,11.4-11.6,24.7-3.8,36.2"/>
		<path class="st7" d="M1340.8,506.9c7.8,11.4-11.6,24.7-3.8,36.1c7.8,11.4,27.2-1.8,35.1,9.6c7.8,11.4-11.6,24.7-3.8,36.2
			c7.8,11.4,27.2-1.8,35.1,9.6c7.8,11.4-11.6,24.7-3.8,36.1c7.8,11.4,27.2-1.8,35.1,9.6c7.8,11.4-11.6,24.7-3.8,36.2
			c7.8,11.4,27.2-1.8,35.1,9.6s-11.6,24.7-3.8,36.2"/>
		<path class="st6" d="M1322.9,552.9c7.8,11.4-11.6,24.7-3.8,36.1c7.8,11.4,27.2-1.8,35.1,9.6c7.8,11.4-11.6,24.7-3.8,36.2
			c7.8,11.4,27.2-1.8,35.1,9.6c7.8,11.4-11.6,24.7-3.8,36.1c7.8,11.4,27.2-1.8,35.1,9.6c7.8,11.4-11.6,24.7-3.8,36.2
			c7.8,11.4,27.2-1.8,35.1,9.6c7.8,11.4-11.6,24.7-3.8,36.2"/>
	</g>
</g>
<g id="Layer_5">
	<g>
		<g>
			<path class="st8" d="M42.5,285.6c0,5.3-4.9,9.6-10.9,9.6s-10.9-4.3-10.9-9.6c0-5.3,4.9-9.6,10.9-9.6S42.5,280.3,42.5,285.6z"/>
			<path class="st8" d="M100.6,285.6c0,5.3-4.9,9.6-10.9,9.6c-6,0-10.9-4.3-10.9-9.6c0-5.3,4.9-9.6,10.9-9.6
				C95.7,276,100.6,280.3,100.6,285.6z"/>
			<path class="st8" d="M158.7,285.6c0,5.3-4.9,9.6-10.9,9.6s-10.9-4.3-10.9-9.6c0-5.3,4.9-9.6,10.9-9.6S158.7,280.3,158.7,285.6z"
				/>
			<path class="st8" d="M216.9,285.6c0,5.3-4.9,9.6-10.9,9.6c-6,0-10.9-4.3-10.9-9.6c0-5.3,4.9-9.6,10.9-9.6
				C212,276,216.9,280.3,216.9,285.6z"/>
			<path class="st8" d="M275,285.6c0,5.3-4.9,9.6-10.9,9.6s-10.9-4.3-10.9-9.6c0-5.3,4.9-9.6,10.9-9.6S275,280.3,275,285.6z"/>
		</g>
		<g>
			<path class="st8" d="M42.5,336.8c0,5.3-4.9,9.6-10.9,9.6s-10.9-4.3-10.9-9.6c0-5.3,4.9-9.6,10.9-9.6S42.5,331.5,42.5,336.8z"/>
			<path class="st8" d="M100.6,336.8c0,5.3-4.9,9.6-10.9,9.6c-6,0-10.9-4.3-10.9-9.6c0-5.3,4.9-9.6,10.9-9.6
				C95.7,327.2,100.6,331.5,100.6,336.8z"/>
			<path class="st8" d="M158.7,336.8c0,5.3-4.9,9.6-10.9,9.6s-10.9-4.3-10.9-9.6c0-5.3,4.9-9.6,10.9-9.6S158.7,331.5,158.7,336.8z"
				/>
			<path class="st8" d="M216.9,336.8c0,5.3-4.9,9.6-10.9,9.6c-6,0-10.9-4.3-10.9-9.6c0-5.3,4.9-9.6,10.9-9.6
				C212,327.2,216.9,331.5,216.9,336.8z"/>
			<path class="st8" d="M275,336.8c0,5.3-4.9,9.6-10.9,9.6s-10.9-4.3-10.9-9.6c0-5.3,4.9-9.6,10.9-9.6S275,331.5,275,336.8z"/>
		</g>
		<g>
			<path class="st8" d="M42.5,388c0,5.3-4.9,9.6-10.9,9.6s-10.9-4.3-10.9-9.6s4.9-9.6,10.9-9.6S42.5,382.7,42.5,388z"/>
			<path class="st8" d="M100.6,388c0,5.3-4.9,9.6-10.9,9.6c-6,0-10.9-4.3-10.9-9.6s4.9-9.6,10.9-9.6
				C95.7,378.3,100.6,382.7,100.6,388z"/>
			<path class="st8" d="M158.7,388c0,5.3-4.9,9.6-10.9,9.6s-10.9-4.3-10.9-9.6s4.9-9.6,10.9-9.6S158.7,382.7,158.7,388z"/>
			<path class="st8" d="M216.9,388c0,5.3-4.9,9.6-10.9,9.6c-6,0-10.9-4.3-10.9-9.6s4.9-9.6,10.9-9.6
				C212,378.3,216.9,382.7,216.9,388z"/>
			<path class="st8" d="M275,388c0,5.3-4.9,9.6-10.9,9.6s-10.9-4.3-10.9-9.6s4.9-9.6,10.9-9.6S275,382.7,275,388z"/>
		</g>
		<g>
			<path class="st8" d="M42.5,439.2c0,5.3-4.9,9.6-10.9,9.6s-10.9-4.3-10.9-9.6c0-5.3,4.9-9.6,10.9-9.6S42.5,433.8,42.5,439.2z"/>
			<path class="st8" d="M100.6,439.2c0,5.3-4.9,9.6-10.9,9.6c-6,0-10.9-4.3-10.9-9.6c0-5.3,4.9-9.6,10.9-9.6
				C95.7,429.5,100.6,433.8,100.6,439.2z"/>
			<path class="st8" d="M158.7,439.2c0,5.3-4.9,9.6-10.9,9.6s-10.9-4.3-10.9-9.6c0-5.3,4.9-9.6,10.9-9.6S158.7,433.8,158.7,439.2z"
				/>
			<path class="st8" d="M216.9,439.2c0,5.3-4.9,9.6-10.9,9.6c-6,0-10.9-4.3-10.9-9.6c0-5.3,4.9-9.6,10.9-9.6
				C212,429.5,216.9,433.8,216.9,439.2z"/>
			<path class="st8" d="M275,439.2c0,5.3-4.9,9.6-10.9,9.6s-10.9-4.3-10.9-9.6c0-5.3,4.9-9.6,10.9-9.6S275,433.8,275,439.2z"/>
		</g>
		<g>
			<path class="st8" d="M42.5,490.4c0,5.3-4.9,9.6-10.9,9.6s-10.9-4.3-10.9-9.6s4.9-9.6,10.9-9.6S42.5,485,42.5,490.4z"/>
			<path class="st8" d="M100.6,490.4c0,5.3-4.9,9.6-10.9,9.6c-6,0-10.9-4.3-10.9-9.6s4.9-9.6,10.9-9.6
				C95.7,480.7,100.6,485,100.6,490.4z"/>
			<path class="st8" d="M158.7,490.4c0,5.3-4.9,9.6-10.9,9.6s-10.9-4.3-10.9-9.6s4.9-9.6,10.9-9.6S158.7,485,158.7,490.4z"/>
			<path class="st8" d="M216.9,490.4c0,5.3-4.9,9.6-10.9,9.6c-6,0-10.9-4.3-10.9-9.6s4.9-9.6,10.9-9.6
				C212,480.7,216.9,485,216.9,490.4z"/>
			<path class="st8" d="M275,490.4c0,5.3-4.9,9.6-10.9,9.6s-10.9-4.3-10.9-9.6s4.9-9.6,10.9-9.6S275,485,275,490.4z"/>
		</g>
	</g>
	<g>
		<g>
			<path class="st8" d="M1804.8,198.1c0,5.3-4.9,9.6-10.9,9.6c-6,0-10.9-4.3-10.9-9.6c0-5.3,4.9-9.6,10.9-9.6
				C1799.9,188.4,1804.8,192.7,1804.8,198.1z"/>
			<path class="st8" d="M1863,198.1c0,5.3-4.9,9.6-10.9,9.6c-6,0-10.9-4.3-10.9-9.6c0-5.3,4.9-9.6,10.9-9.6
				C1858.1,188.4,1863,192.7,1863,198.1z"/>
			<path class="st8" d="M1921.1,198.1c0,5.3-4.9,9.6-10.9,9.6c-6,0-10.9-4.3-10.9-9.6c0-5.3,4.9-9.6,10.9-9.6
				C1916.2,188.4,1921.1,192.7,1921.1,198.1z"/>
			<path class="st8" d="M1979.2,198.1c0,5.3-4.9,9.6-10.9,9.6c-6,0-10.9-4.3-10.9-9.6c0-5.3,4.9-9.6,10.9-9.6
				C1974.3,188.4,1979.2,192.7,1979.2,198.1z"/>
			<path class="st8" d="M2037.4,198.1c0,5.3-4.9,9.6-10.9,9.6c-6,0-10.9-4.3-10.9-9.6c0-5.3,4.9-9.6,10.9-9.6
				C2032.5,188.4,2037.4,192.7,2037.4,198.1z"/>
		</g>
		<g>
			<path class="st8" d="M1804.8,249.2c0,5.3-4.9,9.6-10.9,9.6c-6,0-10.9-4.3-10.9-9.6c0-5.3,4.9-9.6,10.9-9.6
				C1799.9,239.6,1804.8,243.9,1804.8,249.2z"/>
			<path class="st8" d="M1863,249.2c0,5.3-4.9,9.6-10.9,9.6c-6,0-10.9-4.3-10.9-9.6c0-5.3,4.9-9.6,10.9-9.6
				C1858.1,239.6,1863,243.9,1863,249.2z"/>
			<path class="st8" d="M1921.1,249.2c0,5.3-4.9,9.6-10.9,9.6c-6,0-10.9-4.3-10.9-9.6c0-5.3,4.9-9.6,10.9-9.6
				C1916.2,239.6,1921.1,243.9,1921.1,249.2z"/>
			<path class="st8" d="M1979.2,249.2c0,5.3-4.9,9.6-10.9,9.6c-6,0-10.9-4.3-10.9-9.6c0-5.3,4.9-9.6,10.9-9.6
				C1974.3,239.6,1979.2,243.9,1979.2,249.2z"/>
			<path class="st8" d="M2037.4,249.2c0,5.3-4.9,9.6-10.9,9.6c-6,0-10.9-4.3-10.9-9.6c0-5.3,4.9-9.6,10.9-9.6
				C2032.5,239.6,2037.4,243.9,2037.4,249.2z"/>
		</g>
		<g>
			<path class="st8" d="M1804.8,300.4c0,5.3-4.9,9.6-10.9,9.6c-6,0-10.9-4.3-10.9-9.6s4.9-9.6,10.9-9.6
				C1799.9,290.8,1804.8,295.1,1804.8,300.4z"/>
			<path class="st8" d="M1863,300.4c0,5.3-4.9,9.6-10.9,9.6c-6,0-10.9-4.3-10.9-9.6s4.9-9.6,10.9-9.6
				C1858.1,290.8,1863,295.1,1863,300.4z"/>
			<path class="st8" d="M1921.1,300.4c0,5.3-4.9,9.6-10.9,9.6c-6,0-10.9-4.3-10.9-9.6s4.9-9.6,10.9-9.6
				C1916.2,290.8,1921.1,295.1,1921.1,300.4z"/>
			<path class="st8" d="M1979.2,300.4c0,5.3-4.9,9.6-10.9,9.6c-6,0-10.9-4.3-10.9-9.6s4.9-9.6,10.9-9.6
				C1974.3,290.8,1979.2,295.1,1979.2,300.4z"/>
			<path class="st8" d="M2037.4,300.4c0,5.3-4.9,9.6-10.9,9.6c-6,0-10.9-4.3-10.9-9.6s4.9-9.6,10.9-9.6
				C2032.5,290.8,2037.4,295.1,2037.4,300.4z"/>
		</g>
		<g>
			<path class="st8" d="M1804.8,351.6c0,5.3-4.9,9.6-10.9,9.6c-6,0-10.9-4.3-10.9-9.6c0-5.3,4.9-9.6,10.9-9.6
				C1799.9,342,1804.8,346.3,1804.8,351.6z"/>
			<path class="st8" d="M1863,351.6c0,5.3-4.9,9.6-10.9,9.6c-6,0-10.9-4.3-10.9-9.6c0-5.3,4.9-9.6,10.9-9.6
				C1858.1,342,1863,346.3,1863,351.6z"/>
			<path class="st8" d="M1921.1,351.6c0,5.3-4.9,9.6-10.9,9.6c-6,0-10.9-4.3-10.9-9.6c0-5.3,4.9-9.6,10.9-9.6
				C1916.2,342,1921.1,346.3,1921.1,351.6z"/>
			<path class="st8" d="M1979.2,351.6c0,5.3-4.9,9.6-10.9,9.6c-6,0-10.9-4.3-10.9-9.6c0-5.3,4.9-9.6,10.9-9.6
				C1974.3,342,1979.2,346.3,1979.2,351.6z"/>
			<path class="st8" d="M2037.4,351.6c0,5.3-4.9,9.6-10.9,9.6c-6,0-10.9-4.3-10.9-9.6c0-5.3,4.9-9.6,10.9-9.6
				C2032.5,342,2037.4,346.3,2037.4,351.6z"/>
		</g>
		<g>
			<path class="st8" d="M1804.8,402.8c0,5.3-4.9,9.6-10.9,9.6c-6,0-10.9-4.3-10.9-9.6c0-5.3,4.9-9.6,10.9-9.6
				C1799.9,393.2,1804.8,397.5,1804.8,402.8z"/>
			<path class="st8" d="M1863,402.8c0,5.3-4.9,9.6-10.9,9.6c-6,0-10.9-4.3-10.9-9.6c0-5.3,4.9-9.6,10.9-9.6
				C1858.1,393.2,1863,397.5,1863,402.8z"/>
			<path class="st8" d="M1921.1,402.8c0,5.3-4.9,9.6-10.9,9.6c-6,0-10.9-4.3-10.9-9.6c0-5.3,4.9-9.6,10.9-9.6
				C1916.2,393.2,1921.1,397.5,1921.1,402.8z"/>
			<path class="st8" d="M1979.2,402.8c0,5.3-4.9,9.6-10.9,9.6c-6,0-10.9-4.3-10.9-9.6c0-5.3,4.9-9.6,10.9-9.6
				C1974.3,393.2,1979.2,397.5,1979.2,402.8z"/>
			<path class="st8" d="M2037.4,402.8c0,5.3-4.9,9.6-10.9,9.6c-6,0-10.9-4.3-10.9-9.6c0-5.3,4.9-9.6,10.9-9.6
				C2032.5,393.2,2037.4,397.5,2037.4,402.8z"/>
		</g>
	</g>
	<g>
		<g>
			<path class="st8" d="M-74.2,29.1c0,5.3-4.9,9.6-10.9,9.6c-6,0-10.9-4.3-10.9-9.6s4.9-9.6,10.9-9.6
				C-79.1,19.4-74.2,23.7-74.2,29.1z"/>
			<path class="st8" d="M-16,29.1c0,5.3-4.9,9.6-10.9,9.6c-6,0-10.9-4.3-10.9-9.6s4.9-9.6,10.9-9.6C-20.9,19.4-16,23.7-16,29.1z"/>
			<path class="st8" d="M42.1,29.1c0,5.3-4.9,9.6-10.9,9.6s-10.9-4.3-10.9-9.6s4.9-9.6,10.9-9.6S42.1,23.7,42.1,29.1z"/>
			<path class="st8" d="M100.2,29.1c0,5.3-4.9,9.6-10.9,9.6c-6,0-10.9-4.3-10.9-9.6s4.9-9.6,10.9-9.6
				C95.3,19.4,100.2,23.7,100.2,29.1z"/>
			<path class="st8" d="M158.4,29.1c0,5.3-4.9,9.6-10.9,9.6c-6,0-10.9-4.3-10.9-9.6s4.9-9.6,10.9-9.6
				C153.5,19.4,158.4,23.7,158.4,29.1z"/>
		</g>
		<g>
			<path class="st8" d="M-74.2,80.2c0,5.3-4.9,9.6-10.9,9.6c-6,0-10.9-4.3-10.9-9.6c0-5.3,4.9-9.6,10.9-9.6
				C-79.1,70.6-74.2,74.9-74.2,80.2z"/>
			<path class="st8" d="M-16,80.2c0,5.3-4.9,9.6-10.9,9.6c-6,0-10.9-4.3-10.9-9.6c0-5.3,4.9-9.6,10.9-9.6
				C-20.9,70.6-16,74.9-16,80.2z"/>
			<path class="st8" d="M42.1,80.2c0,5.3-4.9,9.6-10.9,9.6s-10.9-4.3-10.9-9.6c0-5.3,4.9-9.6,10.9-9.6S42.1,74.9,42.1,80.2z"/>
			<path class="st8" d="M100.2,80.2c0,5.3-4.9,9.6-10.9,9.6c-6,0-10.9-4.3-10.9-9.6c0-5.3,4.9-9.6,10.9-9.6
				C95.3,70.6,100.2,74.9,100.2,80.2z"/>
			<path class="st8" d="M158.4,80.2c0,5.3-4.9,9.6-10.9,9.6c-6,0-10.9-4.3-10.9-9.6c0-5.3,4.9-9.6,10.9-9.6
				C153.5,70.6,158.4,74.9,158.4,80.2z"/>
		</g>
		<g>
			<path class="st8" d="M-74.2,131.4c0,5.3-4.9,9.6-10.9,9.6c-6,0-10.9-4.3-10.9-9.6c0-5.3,4.9-9.6,10.9-9.6
				C-79.1,121.8-74.2,126.1-74.2,131.4z"/>
			<path class="st8" d="M-16,131.4c0,5.3-4.9,9.6-10.9,9.6c-6,0-10.9-4.3-10.9-9.6c0-5.3,4.9-9.6,10.9-9.6
				C-20.9,121.8-16,126.1-16,131.4z"/>
			<path class="st8" d="M42.1,131.4c0,5.3-4.9,9.6-10.9,9.6s-10.9-4.3-10.9-9.6c0-5.3,4.9-9.6,10.9-9.6S42.1,126.1,42.1,131.4z"/>
			<path class="st8" d="M100.2,131.4c0,5.3-4.9,9.6-10.9,9.6c-6,0-10.9-4.3-10.9-9.6c0-5.3,4.9-9.6,10.9-9.6
				C95.3,121.8,100.2,126.1,100.2,131.4z"/>
			<path class="st8" d="M158.4,131.4c0,5.3-4.9,9.6-10.9,9.6c-6,0-10.9-4.3-10.9-9.6c0-5.3,4.9-9.6,10.9-9.6
				C153.5,121.8,158.4,126.1,158.4,131.4z"/>
		</g>
		<g>
			<path class="st8" d="M-74.2,182.6c0,5.3-4.9,9.6-10.9,9.6c-6,0-10.9-4.3-10.9-9.6c0-5.3,4.9-9.6,10.9-9.6
				C-79.1,173-74.2,177.3-74.2,182.6z"/>
			<path class="st8" d="M-16,182.6c0,5.3-4.9,9.6-10.9,9.6c-6,0-10.9-4.3-10.9-9.6c0-5.3,4.9-9.6,10.9-9.6
				C-20.9,173-16,177.3-16,182.6z"/>
			<path class="st8" d="M42.1,182.6c0,5.3-4.9,9.6-10.9,9.6s-10.9-4.3-10.9-9.6c0-5.3,4.9-9.6,10.9-9.6S42.1,177.3,42.1,182.6z"/>
			<path class="st8" d="M100.2,182.6c0,5.3-4.9,9.6-10.9,9.6c-6,0-10.9-4.3-10.9-9.6c0-5.3,4.9-9.6,10.9-9.6
				C95.3,173,100.2,177.3,100.2,182.6z"/>
			<path class="st8" d="M158.4,182.6c0,5.3-4.9,9.6-10.9,9.6c-6,0-10.9-4.3-10.9-9.6c0-5.3,4.9-9.6,10.9-9.6
				C153.5,173,158.4,177.3,158.4,182.6z"/>
		</g>
		<g>
			<path class="st8" d="M-74.2,233.8c0,5.3-4.9,9.6-10.9,9.6c-6,0-10.9-4.3-10.9-9.6s4.9-9.6,10.9-9.6
				C-79.1,224.2-74.2,228.5-74.2,233.8z"/>
			<path class="st8" d="M-16,233.8c0,5.3-4.9,9.6-10.9,9.6c-6,0-10.9-4.3-10.9-9.6s4.9-9.6,10.9-9.6C-20.9,224.2-16,228.5-16,233.8z
				"/>
			<path class="st8" d="M42.1,233.8c0,5.3-4.9,9.6-10.9,9.6s-10.9-4.3-10.9-9.6s4.9-9.6,10.9-9.6S42.1,228.5,42.1,233.8z"/>
			<path class="st8" d="M100.2,233.8c0,5.3-4.9,9.6-10.9,9.6c-6,0-10.9-4.3-10.9-9.6s4.9-9.6,10.9-9.6
				C95.3,224.2,100.2,228.5,100.2,233.8z"/>
			<path class="st8" d="M158.4,233.8c0,5.3-4.9,9.6-10.9,9.6c-6,0-10.9-4.3-10.9-9.6s4.9-9.6,10.9-9.6
				C153.5,224.2,158.4,228.5,158.4,233.8z"/>
		</g>
	</g>
</g>
<g id="Layer_6">
	<polygon class="st9" points="143.4,819.6 89.2,770.6 158.6,748.3 228,726 212.8,797.3 197.7,868.6 	"/>
</g>
</svg>
